# Blender v2.92.0 OBJ File: 'scene_composition.blend'
# Made by Daniel Guerra Gallardo. 2021
# www.blender.org
o island
v 3.069368 31.630817 -5.107299
v -26.099527 59.713936 15.819503
v 3.069368 31.630817 -6.823602
v -15.523166 55.785622 -15.061132
v 5.359518 31.630817 -5.107299
v 26.178532 57.998135 16.318298
v 5.359518 31.630817 -6.823602
v 26.637527 57.613117 -11.174335
v -12.998176 51.432091 5.268170
v -12.998177 51.432091 -11.392082
v 12.998177 51.432091 -8.646158
v 12.998177 51.432091 5.268170
v -4.558928 42.171658 -11.836019
v 4.528234 42.171658 -9.090096
v 4.528234 42.171658 6.524730
v -4.558927 42.171658 6.524730
v -1.004543 35.082962 -10.435855
v 2.652349 35.082962 -10.435855
v 2.652349 35.082962 -2.076250
v -1.004543 35.082962 -2.076250
v 5.350726 59.713936 -23.015026
v 17.780754 59.713936 -19.478495
v -2.796780 56.794918 -20.517189
v -24.981100 59.713936 -2.723274
v 2.317244 59.713936 23.357328
v -9.357553 60.816570 20.912159
v 17.446842 56.023632 18.285908
v 28.068346 59.713936 4.058157
v 30.490919 59.713936 8.710254
v 30.889462 59.713936 -3.320426
v -24.116213 59.713936 6.477274
v -21.206455 57.621292 -13.521382
vn -0.3030 -0.9528 0.0174
vn 0.0495 -0.9964 -0.0688
vn 0.4324 -0.9014 0.0198
vn 0.0000 -0.9431 0.3326
vn 0.0000 -1.0000 0.0000
vn 0.2419 0.9702 0.0158
vn 0.0000 0.1345 0.9909
vn 0.7379 -0.6749 0.0000
vn 0.2763 0.2957 -0.9145
vn -0.7391 -0.6736 -0.0000
vn -0.8939 -0.4482 0.0000
vn 0.0000 0.1865 -0.9825
vn 0.9667 -0.2558 0.0000
vn 0.0000 -0.7717 0.6360
vn 0.0000 -0.6598 0.7515
vn 0.7869 0.6171 0.0000
vn 0.0000 -0.7229 -0.6909
vn -0.6465 -0.7629 0.0000
vn -0.8650 -0.5017 0.0000
vn -0.5875 -0.8032 -0.0990
vn -0.4001 -0.9157 0.0376
vn -0.8297 0.5297 -0.1761
vn 0.0829 -0.6137 -0.7852
vn 0.1706 -0.8708 -0.4612
vn 0.0967 -0.9355 -0.3398
vn 0.1001 -0.5579 -0.8238
vn 0.4128 -0.9108 0.0000
vn 0.4135 -0.9103 0.0197
vn 0.5127 0.8359 0.1960
vn 0.2019 -0.9737 -0.1052
vn 0.2651 -0.9342 0.2389
vn -0.0993 -0.9219 0.3745
vn -0.2226 -0.4960 0.8393
vn -0.1014 -0.8398 0.5333
vn 0.6113 0.6168 -0.4959
vn -0.3435 0.1683 -0.9239
vn -0.3471 -0.3424 -0.8731
vn 0.0000 1.0000 0.0000
vn -0.0146 0.9986 0.0513
vn -0.2292 0.9682 0.1002
vn -0.1619 0.9567 -0.2420
vn 0.2226 0.4960 -0.8393
vn -0.2019 0.9737 0.1052
vn -0.1878 0.9719 0.1418
vn 0.1049 -0.0483 -0.9933
vn 0.2890 -0.0440 -0.9563
s off
f 32//1 4//1 2//1
f 4//2 23//2 8//2
f 6//3 12//3 8//3
f 9//4 12//4 27//4
f 7//5 1//5 3//5
f 25//6 27//6 21//6
f 15//7 9//7 16//7
f 14//8 12//8 15//8
f 10//9 14//9 13//9
f 9//10 13//10 16//10
f 20//11 13//11 17//11
f 17//12 14//12 18//12
f 14//13 19//13 18//13
f 15//14 20//14 19//14
f 19//15 1//15 5//15
f 7//16 19//16 5//16
f 3//17 18//17 7//17
f 20//18 3//18 1//18
f 10//19 9//19 4//19
f 9//20 2//20 4//20
f 31//21 24//21 32//21
f 2//22 31//22 32//22
f 11//23 10//23 4//23
f 23//24 21//24 8//24
f 21//25 22//25 8//25
f 11//26 4//26 8//26
f 12//27 11//27 8//27
f 8//28 30//28 6//28
f 30//29 28//29 6//29
f 28//30 29//30 6//30
f 12//31 6//31 27//31
f 27//32 25//32 2//32
f 25//33 26//33 2//33
f 2//34 9//34 27//34
f 7//5 5//5 1//5
f 30//35 8//35 22//35
f 21//36 23//36 32//36
f 23//37 4//37 32//37
f 30//38 22//38 28//38
f 22//39 21//39 6//39
f 28//40 22//40 6//40
f 32//41 24//41 21//41
f 24//38 31//38 21//38
f 31//38 2//38 25//38
f 2//42 26//42 25//42
f 29//43 28//43 6//43
f 6//44 21//44 27//44
f 31//38 25//38 21//38
f 15//7 12//7 9//7
f 14//8 11//8 12//8
f 10//45 11//45 14//45
f 9//10 10//10 13//10
f 20//11 16//11 13//11
f 17//46 13//46 14//46
f 14//13 15//13 19//13
f 15//14 16//14 20//14
f 19//15 20//15 1//15
f 7//16 18//16 19//16
f 3//17 17//17 18//17
f 20//18 17//18 3//18
o tree_c
v 1.897464 67.659302 -10.445092
v 0.233996 72.111191 -12.965099
v 0.149330 72.102486 -12.987259
v -2.727825 67.740631 -11.586895
v 0.209070 72.102486 -13.026384
v -1.471972 67.760681 -15.720377
v -1.224170 59.718670 -15.110844
v 2.030693 59.718670 -14.285535
v 1.239978 59.718670 -11.167101
v -2.014885 59.718670 -11.992410
v 2.862553 67.531693 -14.577209
v 0.207234 72.102486 -13.026850
v -1.228384 65.743546 -14.778200
v -2.144816 65.177879 -16.527237
v 3.441763 65.092567 -15.007516
v 1.878021 65.743546 -13.990535
v 2.134599 65.057274 -9.852304
v 1.242089 65.743546 -11.482540
v -1.864315 65.743546 -12.270205
v -3.121420 65.163086 -10.709160
v -0.674568 68.851799 -14.420780
v 1.482147 68.851799 -13.873920
v 1.007829 68.851799 -12.003300
v -1.148885 68.851799 -12.550160
v 0.747393 62.644989 -11.955457
v 2.560768 62.814625 -9.028593
v -3.792147 62.814625 -10.639448
v -1.206172 62.644989 -12.450807
v -2.150342 62.814625 -17.114418
v -0.731586 62.644989 -14.322487
v 1.221979 62.644989 -13.827137
v 4.202572 62.814625 -15.503563
v -0.731585 60.404060 -14.322487
v 1.221980 60.404060 -13.827138
v 0.747393 60.404057 -11.955458
v -1.206172 60.404057 -12.450807
vn -0.2111 0.4215 0.8819
vn -0.2448 0.4072 0.8800
vn -0.2103 0.4219 0.8819
vn -0.6063 0.5733 -0.5511
vn -0.8400 0.4767 -0.2590
vn -0.8429 0.4745 -0.2538
vn 0.0000 -1.0000 -0.0000
vn 0.8790 0.4391 0.1860
vn 0.8215 0.5380 -0.1887
vn 0.8788 0.4369 0.1918
vn 0.2508 0.4384 -0.8631
vn -0.1962 -0.4614 0.8652
vn -0.0756 0.9911 -0.1099
vn -0.2214 -0.9486 0.2261
vn -0.0728 0.9911 -0.1111
vn -0.1108 -0.9237 0.3667
vn -0.1079 -0.9127 0.3942
vn -0.1055 -0.9032 0.4160
vn -0.4490 -0.8856 -0.1190
vn -0.4555 -0.8824 -0.1181
vn -0.4620 -0.8791 -0.1171
vn 0.4850 -0.8705 0.0837
vn 0.4279 -0.8992 0.0913
vn 0.3822 -0.9190 0.0969
vn 0.0537 -0.9201 -0.3879
vn 0.0659 -0.9402 -0.3341
vn 0.0746 -0.9528 -0.2942
vn -0.2010 -0.6681 0.7164
vn -0.2183 -0.6463 0.7312
vn -0.1760 -0.6981 0.6941
vn -0.7117 -0.6835 -0.1622
vn -0.7041 -0.6938 -0.1515
vn -0.7267 -0.6618 -0.1843
vn 0.6499 -0.7366 0.1873
vn 0.6624 -0.7266 0.1826
vn 0.6850 -0.7075 0.1737
vn 0.1557 -0.7458 -0.6478
vn 0.1488 -0.7524 -0.6416
vn 0.1667 -0.7348 -0.6575
vn -0.0174 -0.9975 0.0686
vn -0.0795 -0.9966 -0.0202
vn 0.0662 -0.9977 0.0168
vn 0.0176 -0.9974 -0.0696
vn 0.1792 0.6843 -0.7069
vn 0.6925 0.6997 0.1756
vn -0.6925 0.6997 -0.1756
vn -0.1792 0.6842 0.7069
vn -0.1792 0.6843 0.7069
vn -0.1678 0.4883 0.8564
vn -0.1577 0.4794 0.8633
vn -0.1340 0.4583 0.8786
vn -0.8841 0.4322 -0.1778
vn -0.8893 0.4247 -0.1696
vn -0.9011 0.4069 -0.1502
vn 0.8903 0.3945 0.2277
vn 0.8902 0.3948 0.2273
vn 0.8903 0.3939 0.2284
vn 0.2380 0.3988 -0.8856
vn 0.2396 0.4004 -0.8845
vn 0.2456 0.4063 -0.8801
vn -0.2012 0.5743 0.7936
vn -0.8666 0.4480 -0.2197
vn 0.8156 0.5405 0.2068
vn 0.2018 0.5711 -0.7957
vn 0.2458 0.0000 -0.9693
vn 0.9693 -0.0000 0.2458
vn -0.9693 -0.0000 -0.2458
vn -0.2458 -0.0000 0.9693
vn -0.2704 0.3957 0.8777
vn -0.4423 0.5902 -0.6753
vn 0.7299 0.5580 -0.3949
vn -0.2194 -0.4519 0.8647
vn -0.0396 -0.9868 0.1568
vn -0.1116 -0.9269 0.3583
vn -0.4467 -0.8867 -0.1193
vn 0.4996 -0.8624 0.0817
vn 0.0485 -0.9108 -0.4100
vn -0.2285 -0.6330 0.7397
vn -0.6964 -0.7037 -0.1409
vn 0.6401 -0.7442 0.1909
vn 0.1440 -0.7571 -0.6373
vn -0.2093 0.5240 0.8256
vn -0.8569 0.4675 -0.2173
vn 0.8901 0.3959 0.2257
vn 0.2266 0.3876 -0.8936
s 1
f 33//47 35//48 36//49
f 35//50 38//51 36//52
f 40//53 42//53 39//53
f 43//54 34//55 33//56
f 38//57 44//58 43//57
f 34//59 37//60 35//61
f 45//62 47//63 48//64
f 48//65 49//66 50//67
f 51//68 46//69 45//70
f 50//71 52//72 51//73
f 38//74 54//75 53//76
f 43//77 55//78 54//79
f 56//80 38//81 53//82
f 33//83 56//84 55//85
f 57//86 59//86 60//86
f 60//87 61//87 62//87
f 64//88 57//88 63//88
f 61//89 63//89 62//89
f 65//90 40//90 39//90
f 40//91 67//91 41//91
f 42//92 65//92 39//92
f 67//93 42//94 41//93
f 55//95 52//96 49//97
f 56//98 46//99 52//100
f 47//101 55//102 49//103
f 53//104 47//105 46//106
f 50//107 59//107 58//107
f 51//108 61//108 59//108
f 64//109 50//109 58//109
f 61//110 48//110 64//110
f 62//111 66//111 65//111
f 63//112 67//112 66//112
f 60//113 65//113 68//113
f 57//114 68//114 67//114
f 33//47 34//115 35//48
f 35//50 37//116 38//51
f 40//53 41//53 42//53
f 43//54 44//117 34//55
f 38//57 37//118 44//58
f 34//59 44//119 37//60
f 45//62 46//120 47//63
f 48//65 47//121 49//66
f 51//68 52//122 46//69
f 50//71 49//123 52//72
f 38//74 43//124 54//75
f 43//77 33//125 55//78
f 56//80 36//126 38//81
f 33//83 36//127 56//84
f 57//86 58//86 59//86
f 60//87 59//87 61//87
f 64//88 58//88 57//88
f 61//89 64//89 63//89
f 65//90 66//90 40//90
f 40//91 66//91 67//91
f 42//92 68//92 65//92
f 67//93 68//94 42//94
f 55//95 56//128 52//96
f 56//98 53//129 46//99
f 47//101 54//130 55//102
f 53//104 54//131 47//105
f 50//107 51//107 59//107
f 51//108 45//108 61//108
f 64//109 48//109 50//109
f 61//110 45//110 48//110
f 62//111 63//111 66//111
f 63//112 57//112 67//112
f 60//113 62//113 65//113
f 57//114 60//114 68//114
o tree_b
v 25.762400 65.716789 10.272461
v 22.870256 70.168671 9.404665
v 22.791069 70.159966 9.441931
v 21.480499 65.798111 12.361083
v 22.811840 70.159966 9.373607
v 19.794678 65.818169 8.383540
v 20.375601 57.776154 8.692515
v 23.402800 57.776154 7.239470
v 24.794939 57.776154 10.139781
v 21.767740 57.776154 11.592826
v 23.854288 65.589180 6.482356
v 22.810133 70.159966 9.374426
v 20.585602 63.801025 8.950524
v 18.761038 63.235359 8.195581
v 24.022997 63.150047 5.780797
v 23.474726 63.801025 7.563755
v 26.324402 63.114758 10.575420
v 24.594353 63.801025 9.896324
v 21.705229 63.801025 11.283094
v 21.741070 63.220573 13.287064
v 21.239782 66.909286 8.869833
v 23.245642 66.909286 7.907026
v 24.080730 66.909286 9.646804
v 22.074869 66.909286 10.609611
v 23.911510 60.702473 9.850472
v 27.179518 60.872108 10.934441
v 21.270966 60.872108 13.770526
v 22.094589 60.702473 10.722589
v 18.380392 60.872108 7.748455
v 21.259029 60.702473 8.981825
v 23.075951 60.702473 8.109709
v 24.288944 60.872108 4.912369
v 21.259029 58.461544 8.981825
v 23.075951 58.461544 8.109709
v 23.911510 58.461540 9.850471
v 22.094589 58.461540 10.722588
vn 0.4033 0.4215 0.8122
vn 0.3762 0.4072 0.8323
vn 0.4039 0.4219 0.8117
vn -0.8186 0.5733 -0.0343
vn -0.8108 0.4767 0.3397
vn -0.8096 0.4745 0.3455
vn 0.0000 -1.0000 0.0000
vn 0.7938 0.4391 -0.4207
vn 0.5095 0.5380 -0.6715
vn 0.7974 0.4369 -0.4162
vn -0.3608 0.4384 -0.8232
vn 0.4034 -0.4607 0.7906
vn -0.1286 0.9910 -0.0361
vn -0.0258 -0.9509 0.3085
vn -0.1271 0.9911 -0.0387
vn 0.1500 -0.9237 0.3524
vn 0.1699 -0.9127 0.3717
vn 0.1857 -0.9032 0.3869
vn -0.4209 -0.8856 0.1965
vn -0.4253 -0.8824 0.2013
vn -0.4297 -0.8791 0.2062
vn 0.4259 -0.8705 -0.2466
vn 0.3870 -0.8992 -0.2043
vn 0.3555 -0.9190 -0.1706
vn -0.2075 -0.9201 -0.3321
vn -0.1636 -0.9402 -0.2986
vn -0.1313 -0.9528 -0.2736
vn 0.3050 -0.6681 0.6787
vn 0.3012 -0.6463 0.7011
vn 0.3098 -0.6981 0.6455
vn -0.6502 -0.6835 0.3317
vn -0.6375 -0.6938 0.3350
vn -0.6759 -0.6618 0.3244
vn 0.6189 -0.7366 -0.2729
vn 0.6254 -0.7266 -0.2845
vn 0.6371 -0.7075 -0.3058
vn -0.2958 -0.7458 -0.5969
vn -0.2971 -0.7524 -0.5879
vn -0.2935 -0.7348 -0.6115
vn 0.0306 -0.9975 0.0638
vn -0.0739 -0.9966 0.0355
vn 0.0616 -0.9977 -0.0296
vn -0.0311 -0.9974 -0.0647
vn -0.3156 0.6843 -0.6574
vn 0.6441 0.6997 -0.3092
vn -0.6441 0.6997 0.3092
vn 0.3156 0.6843 0.6574
vn 0.4201 0.4883 0.7649
vn 0.4324 0.4794 0.7637
vn 0.4604 0.4583 0.7603
vn -0.7925 0.4322 0.4303
vn -0.7913 0.4247 0.4399
vn -0.7879 0.4069 0.4623
vn 0.8292 0.3945 -0.3959
vn 0.8289 0.3948 -0.3963
vn 0.8298 0.3939 -0.3954
vn -0.3851 0.3988 -0.8323
vn -0.3831 0.4004 -0.8324
vn -0.3757 0.4063 -0.8329
vn 0.3543 0.5743 0.7380
vn -0.8060 0.4480 0.3869
vn 0.7585 0.5405 -0.3641
vn -0.3552 0.5711 -0.7400
vn -0.4327 0.0000 -0.9015
vn 0.9015 -0.0000 -0.4327
vn -0.9015 0.0000 0.4327
vn 0.4327 -0.0000 0.9015
vn 0.3551 0.3957 0.8469
vn -0.7723 0.5902 -0.2348
vn 0.3070 0.5580 -0.7710
vn 0.3856 -0.4515 0.8047
vn 0.0698 -0.9873 0.1430
vn 0.1440 -0.9269 0.3465
vn -0.4194 -0.8867 0.1948
vn 0.4358 -0.8624 -0.2576
vn -0.2256 -0.9108 -0.3457
vn 0.2988 -0.6330 0.7142
vn -0.6248 -0.7037 0.3383
vn 0.6137 -0.7442 -0.2639
vn -0.2980 -0.7571 -0.5814
vn 0.3686 0.5240 0.7679
vn -0.7969 0.4675 0.3825
vn 0.8278 0.3959 -0.3974
vn -0.3989 0.3876 -0.8311
s 1
f 69//132 71//133 72//134
f 71//135 74//136 72//137
f 76//138 78//138 75//138
f 79//139 70//140 69//141
f 74//142 80//143 79//142
f 70//144 73//145 71//146
f 81//147 83//148 84//149
f 84//150 85//151 86//152
f 87//153 82//154 81//155
f 86//156 88//157 87//158
f 74//159 90//160 89//161
f 79//162 91//163 90//164
f 92//165 74//166 89//167
f 69//168 92//169 91//170
f 93//171 95//171 96//171
f 96//172 97//172 98//172
f 100//173 93//173 99//173
f 97//174 99//174 98//174
f 101//175 76//175 75//175
f 76//176 103//176 77//176
f 78//177 101//177 75//177
f 103//178 78//178 77//178
f 91//179 88//180 85//181
f 92//182 82//183 88//184
f 83//185 91//186 85//187
f 89//188 83//189 82//190
f 86//191 95//191 94//191
f 87//192 97//192 95//192
f 100//193 86//193 94//193
f 97//194 84//194 100//194
f 98//195 102//195 101//195
f 99//196 103//196 102//196
f 96//197 101//197 104//197
f 93//198 104//198 103//198
f 69//132 70//199 71//133
f 71//135 73//200 74//136
f 76//138 77//138 78//138
f 79//139 80//201 70//140
f 74//142 73//202 80//143
f 70//144 80//203 73//145
f 81//147 82//204 83//148
f 84//150 83//205 85//151
f 87//153 88//206 82//154
f 86//156 85//207 88//157
f 74//159 79//208 90//160
f 79//162 69//209 91//163
f 92//165 72//210 74//166
f 69//168 72//211 92//169
f 93//171 94//171 95//171
f 96//172 95//172 97//172
f 100//173 94//173 93//173
f 97//174 100//174 99//174
f 101//175 102//175 76//175
f 76//176 102//176 103//176
f 78//177 104//177 101//177
f 103//178 104//178 78//178
f 91//179 92//212 88//180
f 92//182 89//213 82//183
f 83//185 90//214 91//186
f 89//188 90//215 83//189
f 86//191 87//191 95//191
f 87//192 81//192 97//192
f 100//193 84//193 86//193
f 97//194 81//194 84//194
f 98//195 99//195 102//195
f 99//196 93//196 103//196
f 96//197 98//197 101//197
f 93//198 96//198 104//198
o tree_a
v 16.529934 69.797699 -5.997669
v 19.151697 75.921799 -9.219439
v 19.145885 75.909828 -9.339690
v 16.122229 69.909569 -12.538620
v 19.221857 75.909828 -9.277411
v 22.064722 69.937157 -12.593950
v 21.366879 58.874405 -12.017518
v 21.625158 58.874405 -7.405595
v 17.206547 58.874401 -7.158139
v 16.948267 58.874401 -11.770062
v 22.350800 69.622154 -6.434045
v 19.221710 75.909828 -9.280012
v 20.928570 67.162338 -11.885955
v 22.846369 66.384193 -13.809547
v 23.154261 66.266838 -5.851216
v 21.175070 67.162338 -7.484387
v 15.849671 66.218292 -5.442137
v 17.621410 67.162338 -7.285372
v 17.374908 67.162338 -11.686939
v 14.808046 66.363853 -12.693441
v 20.687727 71.438126 -11.011804
v 20.858868 71.438126 -7.955884
v 18.208324 71.438126 -7.807446
v 18.037184 71.438126 -10.863365
v 18.038200 62.899902 -8.129532
v 14.944246 63.133259 -4.543340
v 14.440126 63.133259 -13.544994
v 17.883179 62.899902 -10.897603
v 23.614725 63.133259 -14.058799
v 20.535225 62.899902 -11.046125
v 20.690245 62.899902 -8.278054
v 24.118845 63.133259 -5.057144
v 20.535225 59.817238 -11.046125
v 20.690245 59.817238 -8.278054
v 18.038200 59.817234 -8.129532
v 17.883181 59.817234 -10.897603
vn -0.9046 0.4215 0.0628
vn -0.9129 0.4072 0.0301
vn -0.9044 0.4219 0.0636
vn 0.3441 0.5733 -0.7436
vn -0.0045 0.4767 -0.8790
vn -0.0104 0.4745 -0.8802
vn 0.0000 -1.0000 0.0000
vn 0.0859 0.4391 0.8943
vn 0.4262 0.5380 0.7273
vn 0.0803 0.4369 0.8959
vn 0.8986 0.4384 -0.0193
vn -0.8840 -0.4618 0.0725
vn 0.0823 0.9910 -0.1052
vn -0.2807 -0.9488 -0.1449
vn 0.0842 0.9911 -0.1029
vn -0.3830 -0.9237 0.0042
vn -0.4084 -0.9127 0.0152
vn -0.4285 -0.9032 0.0240
vn -0.0210 -0.8856 -0.4641
vn -0.0238 -0.8824 -0.4699
vn -0.0267 -0.8791 -0.4759
vn 0.0654 -0.8705 0.4878
vn 0.0411 -0.8992 0.4356
vn 0.0221 -0.9190 0.3937
vn 0.3861 -0.9201 -0.0650
vn 0.3385 -0.9402 -0.0373
vn 0.3031 -0.9528 -0.0170
vn -0.7437 -0.6681 0.0229
vn -0.7630 -0.6463 0.0108
vn -0.7149 -0.6981 0.0400
vn -0.0584 -0.6835 -0.7276
vn -0.0664 -0.6938 -0.7171
vn -0.0419 -0.6617 -0.7486
vn 0.0160 -0.7366 0.6762
vn 0.0243 -0.7266 0.6867
vn 0.0395 -0.7075 0.7056
vn 0.6646 -0.7458 -0.0455
vn 0.6567 -0.7524 -0.0502
vn 0.6773 -0.7348 -0.0379
vn -0.0706 -0.9975 0.0040
vn -0.0046 -0.9966 -0.0819
vn 0.0038 -0.9977 0.0682
vn 0.0717 -0.9974 -0.0040
vn 0.7281 0.6843 -0.0408
vn 0.0399 0.6997 0.7133
vn -0.0399 0.6997 -0.7133
vn -0.7281 0.6843 0.0408
vn -0.8673 0.4883 0.0964
vn -0.8709 0.4794 0.1082
vn -0.8784 0.4583 0.1354
vn -0.0952 0.4322 -0.8968
vn -0.1046 0.4247 -0.8993
vn -0.1266 0.4069 -0.9047
vn 0.0495 0.3945 0.9176
vn 0.0499 0.3948 0.9174
vn 0.0488 0.3939 0.9179
vn 0.9162 0.3988 -0.0383
vn 0.9156 0.4004 -0.0364
vn 0.9133 0.4063 -0.0293
vn -0.8174 0.5743 0.0458
vn -0.0500 0.4480 -0.8926
vn 0.0470 0.5405 0.8401
vn 0.8196 0.5711 -0.0459
vn 0.9984 0.0000 -0.0559
vn 0.0559 0.0000 0.9984
vn -0.0559 0.0000 -0.9984
vn -0.9984 0.0000 0.0559
vn -0.9183 0.3958 0.0050
vn 0.5118 0.5902 -0.6243
vn 0.5955 0.5580 0.5780
vn -0.8905 -0.4521 0.0500
vn -0.1609 -0.9869 0.0087
vn -0.3752 -0.9269 0.0008
vn -0.0200 -0.8867 -0.4620
vn 0.0718 -0.8624 0.5011
vn 0.4057 -0.9108 -0.0766
vn -0.7741 -0.6330 0.0036
vn -0.0742 -0.7037 -0.7066
vn 0.0097 -0.7442 0.6679
vn 0.6511 -0.7571 -0.0535
vn -0.8504 0.5240 0.0476
vn -0.0494 0.4675 -0.8826
vn 0.0513 0.3959 0.9168
vn 0.9204 0.3876 -0.0515
s 1
f 105//216 107//217 108//218
f 107//219 110//220 108//221
f 112//222 114//222 111//222
f 115//223 106//224 105//225
f 110//226 116//227 115//226
f 106//228 109//229 107//230
f 117//231 119//232 120//233
f 120//234 121//235 122//236
f 123//237 118//238 117//239
f 122//240 124//241 123//242
f 110//243 126//244 125//245
f 115//246 127//247 126//248
f 128//249 110//250 125//251
f 105//252 128//253 127//254
f 129//255 131//255 132//255
f 132//256 133//256 134//256
f 136//257 129//257 135//257
f 133//258 135//258 134//258
f 137//259 112//259 111//259
f 112//260 139//260 113//260
f 114//261 137//261 111//261
f 139//262 114//262 113//262
f 127//263 124//264 121//265
f 128//266 118//267 124//268
f 119//269 127//270 121//271
f 125//272 119//273 118//274
f 122//275 131//275 130//275
f 123//276 133//276 131//276
f 136//277 122//277 130//277
f 133//278 120//278 136//278
f 134//279 138//279 137//279
f 135//280 139//280 138//280
f 132//281 137//281 140//281
f 129//282 140//282 139//282
f 105//216 106//283 107//217
f 107//219 109//284 110//220
f 112//222 113//222 114//222
f 115//223 116//285 106//224
f 110//226 109//286 116//227
f 106//228 116//287 109//229
f 117//231 118//288 119//232
f 120//234 119//289 121//235
f 123//237 124//290 118//238
f 122//240 121//291 124//241
f 110//243 115//292 126//244
f 115//246 105//293 127//247
f 128//249 108//294 110//250
f 105//252 108//295 128//253
f 129//255 130//255 131//255
f 132//256 131//256 133//256
f 136//257 130//257 129//257
f 133//258 136//258 135//258
f 137//259 138//259 112//259
f 112//260 138//260 139//260
f 114//261 140//261 137//261
f 139//262 140//262 114//262
f 127//263 128//296 124//264
f 128//266 125//297 118//267
f 119//269 126//298 127//270
f 125//272 126//299 119//273
f 122//275 123//275 131//275
f 123//276 117//276 133//276
f 136//277 120//277 122//277
f 133//278 117//278 120//278
f 134//279 135//279 138//279
f 135//280 129//280 139//280
f 132//281 134//281 137//281
f 129//282 132//282 140//282
o house
v -15.381893 59.554928 11.981740
v -15.381894 65.588791 11.981741
v -9.944686 65.588791 -0.652737
v -9.944685 59.554932 -0.652738
v -5.885173 59.554932 1.094261
v -5.885174 69.114792 1.094263
v -1.825661 65.588791 2.841261
v -1.825660 59.554932 2.841260
v -7.262869 65.588791 15.475739
v -7.262868 59.554928 15.475738
v -11.322381 59.554928 13.728739
v -11.322382 69.114792 13.728741
v -10.436969 62.399990 14.109774
v -11.322381 63.169037 13.728739
v -11.179249 63.169037 13.396142
v -10.293837 62.399990 13.777176
v -15.381893 59.554928 11.981740
v -15.381894 65.588791 11.981741
v -7.262869 65.588791 15.475739
v -7.262868 59.554928 15.475738
v -11.322381 59.554928 13.728739
v -11.322382 69.114792 13.728741
v -12.207793 59.596485 13.347704
v -12.207794 62.399990 13.347705
v -10.436969 59.596485 14.109774
v -11.322381 59.596485 13.728739
v -9.088140 66.602394 2.633959
v -9.088141 69.853745 2.633959
v -8.397676 69.853745 1.029520
v -8.397676 66.602394 1.029520
v -7.017176 69.853745 1.623614
v -7.017176 66.602394 1.623613
v -7.707642 69.853745 3.228053
v -7.707641 66.602394 3.228053
v -8.640225 69.853745 2.331946
v -7.796252 69.853745 2.695148
v -7.796252 68.886917 2.695147
v -8.640225 68.886917 2.331946
v -8.309065 69.853745 1.562428
v -7.465093 69.853745 1.925629
v -7.465092 68.886917 1.925628
v -8.309065 68.886917 1.562428
v -10.293837 59.596485 13.777176
v -12.064662 62.399990 13.015107
v -12.064661 59.596485 13.015107
v -11.179249 59.596485 13.396141
v -5.608688 65.539146 11.093072
v -6.370477 65.539146 10.765240
v -6.695617 65.804649 10.625317
v -5.933828 65.804649 10.953150
v -5.991655 65.539146 9.884970
v -6.316795 65.804649 9.745047
v -5.612834 65.539146 9.004701
v -4.851047 65.539146 9.332534
v -5.176186 65.804649 9.192611
v -5.937974 65.804649 8.864778
v -5.229867 65.539146 10.212803
v -5.555007 67.221214 10.072881
v -6.316795 67.221214 9.745048
v -8.793887 68.200836 8.679039
v -5.555007 68.200836 10.072881
v -4.858087 65.594772 8.453441
v -8.096966 65.594772 7.059598
v -9.490808 65.594772 10.298479
v -6.251929 65.594772 11.692322
vn -0.9186 0.0000 -0.3953
vn 0.3953 0.0000 -0.9186
vn 0.9186 0.0000 0.3953
vn 0.0000 -1.0000 0.0000
vn -0.5729 0.7817 -0.2465
vn 0.5729 0.7817 0.2465
vn -0.5729 -0.7817 -0.2465
vn -0.1342 -0.0000 0.9910
vn 0.0000 0.0000 1.0000
vn -0.1681 -0.0000 0.9858
vn -0.2018 -0.0000 0.9794
vn -0.1465 -0.0000 0.9892
vn -0.3953 0.0000 0.9186
vn 0.0000 1.0000 -0.0000
vn 0.5729 -0.7817 0.2465
vn 0.5512 0.8000 0.2372
vn -0.3274 -0.5603 0.7608
vn 0.3274 0.5603 -0.7608
vn -0.3274 0.5603 0.7608
vn 0.3274 -0.5603 -0.7608
s 1
f 142//300 144//300 141//300
f 145//301 147//301 148//301
f 147//302 150//302 148//302
f 148//303 151//303 145//303
f 143//304 152//304 146//304
f 146//305 149//305 147//305
f 145//303 141//303 144//303
f 143//301 145//301 144//301
f 154//306 156//306 153//306
f 157//307 142//308 141//308
f 159//309 150//308 149//308
f 160//307 151//308 150//308
f 158//309 152//308 142//308
f 161//310 141//308 151//308
f 162//311 149//308 152//308
f 164//312 157//307 163//312
f 153//312 160//307 159//309
f 165//312 161//310 160//307
f 154//312 158//309 164//312
f 163//312 161//310 166//312
f 154//312 159//309 162//311
f 168//300 170//300 167//300
f 169//301 172//301 170//301
f 171//302 174//302 172//302
f 173//312 167//312 174//312
f 176//301 178//301 175//301
f 179//313 168//313 175//313
f 180//313 169//313 179//313
f 180//313 173//313 171//313
f 175//313 173//313 176//313
f 182//313 177//313 181//313
f 179//312 181//312 180//312
f 180//300 177//300 176//300
f 175//302 182//302 179//302
f 156//312 184//312 186//312
f 164//314 155//314 154//314
f 153//300 183//300 165//300
f 166//313 185//313 163//313
f 165//313 186//313 166//313
f 163//302 184//302 164//302
f 188//301 190//301 187//301
f 191//315 189//315 188//315
f 193//312 195//312 196//312
f 197//313 188//313 187//313
f 194//313 191//313 197//313
f 198//316 196//316 195//316
f 201//317 203//317 200//317
f 200//318 205//318 201//318
f 198//302 205//302 190//302
f 198//302 202//302 201//302
f 199//302 192//302 196//302
f 190//319 199//319 198//319
f 193//315 192//315 191//315
f 142//300 143//300 144//300
f 145//301 146//301 147//301
f 147//302 149//302 150//302
f 148//303 150//303 151//303
f 143//304 142//304 152//304
f 146//305 152//305 149//305
f 145//303 151//303 141//303
f 143//301 146//301 145//301
f 154//306 155//306 156//306
f 157//307 158//309 142//308
f 159//309 160//307 150//308
f 160//307 161//310 151//308
f 158//309 162//311 152//308
f 161//310 157//307 141//308
f 162//311 159//309 149//308
f 164//312 158//309 157//307
f 153//312 165//312 160//307
f 165//312 166//312 161//310
f 154//312 162//311 158//309
f 163//312 157//307 161//310
f 154//312 153//312 159//309
f 168//300 169//300 170//300
f 169//301 171//301 172//301
f 171//302 173//302 174//302
f 173//312 168//312 167//312
f 176//301 177//301 178//301
f 179//313 169//313 168//313
f 180//313 171//313 169//313
f 180//313 176//313 173//313
f 175//313 168//313 173//313
f 182//313 178//313 177//313
f 179//312 182//312 181//312
f 180//300 181//300 177//300
f 175//302 178//302 182//302
f 186//312 183//312 156//312
f 156//312 155//312 184//312
f 184//312 185//312 186//312
f 164//314 184//314 155//314
f 153//300 156//300 183//300
f 166//313 186//313 185//313
f 165//313 183//313 186//313
f 163//302 185//302 184//302
f 188//301 189//301 190//301
f 191//315 192//315 189//315
f 193//312 194//312 195//312
f 197//313 191//313 188//313
f 194//313 193//313 191//313
f 198//316 199//316 196//316
f 201//317 202//317 203//317
f 200//318 204//318 205//318
f 198//302 201//302 205//302
f 198//302 195//302 202//302
f 199//302 189//302 192//302
f 190//319 189//319 199//319
f 193//315 196//315 192//315
